# Blender v2.82 (sub 7) OBJ File: 'planev2.blend'
# www.blender.org
mtllib planev2.mtl
o Sphere
v 2.234973 2.184126 8.181355
v 2.234973 -0.352108 8.181355
v 0.234973 2.184126 8.181355
v 0.234973 -0.352108 8.169930
v 0.213399 0.577013 -4.748617
v 0.213399 1.583134 -4.748617
v -0.625040 0.577013 -6.222470
v -0.625040 1.583134 -6.222470
v 2.374098 0.577013 -4.748617
v 2.374098 1.583134 -4.748617
v 3.212537 0.577013 -6.222470
v 3.212537 1.583134 -6.222470
v 0.978001 1.358967 -3.960837
v 0.978001 1.970973 -3.960837
v 0.978001 1.358967 -5.960837
v 0.978001 3.358967 -5.960837
v 1.473093 1.358967 -3.960837
v 1.473093 1.970973 -3.960837
v 1.473093 1.358967 -5.960837
v 1.473093 3.358967 -5.960837
v 1.525311 1.915289 -5.986640
v 2.234973 2.184126 -3.425396
v 1.525311 1.255697 -5.986640
v 2.234973 -0.352108 -3.425396
v 0.944635 1.915289 -5.986640
v 0.234973 2.184126 -3.425396
v 0.234973 -0.352108 -3.425396
v 0.944635 1.255697 -5.986640
v 2.234973 2.184126 8.181355
v 0.234973 2.184126 8.181355
v 0.234973 -0.352108 8.169930
v 2.234973 -0.352108 8.181355
v 1.765255 1.714518 12.852012
v 2.234715 2.183922 10.485443
v 2.234715 -0.352313 10.485443
v 1.765255 0.116672 12.849331
v 0.234715 2.183922 10.485443
v 0.703643 1.714519 12.849898
v 0.703643 0.116672 12.845380
v 0.234715 -0.352313 10.474017
vt 0.375000 0.612600
vt 0.625000 0.612600
vt 0.625000 0.750000
vt 0.375000 0.750000
vt 0.375000 0.000000
vt 0.625000 0.000000
vt 0.625000 0.137400
vt 0.375000 0.137400
vt 0.694952 0.588708
vt 0.805048 0.588708
vt 0.805048 0.661292
vt 0.694952 0.661292
vt 0.375000 0.362600
vt 0.625000 0.362601
vt 0.625000 0.500000
vt 0.375000 0.500000
vt 0.375000 0.000000
vt 0.625000 0.000000
vt 0.625000 0.250000
vt 0.375000 0.250000
vt 0.625000 0.500000
vt 0.375000 0.500000
vt 0.625000 0.750000
vt 0.375000 0.750000
vt 0.625000 1.000000
vt 0.375000 1.000000
vt 0.125000 0.500000
vt 0.125000 0.750000
vt 0.875000 0.500000
vt 0.875000 0.750000
vt 0.375000 0.000000
vt 0.625000 0.000000
vt 0.625000 0.250000
vt 0.375000 0.250000
vt 0.625000 0.500000
vt 0.375000 0.500000
vt 0.625000 0.750000
vt 0.375000 0.750000
vt 0.625000 1.000000
vt 0.375000 1.000000
vt 0.125000 0.500000
vt 0.125000 0.750000
vt 0.875000 0.500000
vt 0.875000 0.750000
vt 0.375000 0.612600
vt 0.125000 0.612600
vt 0.194952 0.500000
vt 0.305048 0.500000
vt 0.463708 0.250000
vt 0.536292 0.250000
vt 0.463708 0.500000
vt 0.536292 0.500000
vt 0.625000 0.500000
vt 0.875000 0.500000
vt 0.375000 0.750000
vt 0.125000 0.750000
vt 0.625000 1.000000
vt 0.625000 0.750000
vt 0.625000 0.750000
vt 0.625000 1.000000
vt 0.375000 0.750000
vt 0.375000 1.000000
vt 0.375000 1.000000
vt 0.375000 0.750000
vt 0.625000 0.750000
vt 0.375000 0.750000
vt 0.375000 1.000000
vt 0.625000 1.000000
vt 0.421249 0.808649
vt 0.578751 0.808649
vt 0.578751 0.941351
vt 0.421249 0.941351
vn 0.0000 -1.0000 0.0000
vn -1.0000 0.0000 0.0000
vn 0.0000 0.0000 -1.0000
vn 0.0000 1.0000 0.0000
vn -0.8692 0.0000 0.4945
vn 0.8692 0.0000 0.4945
vn 0.0000 0.0000 1.0000
vn 1.0000 0.0000 0.0000
vn 0.0000 0.8215 0.5701
vn 0.9637 0.0000 -0.2670
vn 0.0000 0.9945 -0.1044
vn 0.0000 -0.8470 -0.5317
vn -0.9637 0.0000 -0.2670
vn 1.0000 0.0000 0.0001
vn -1.0000 0.0000 -0.0001
vn 0.0000 -1.0000 -0.0001
vn -0.0029 -0.0023 1.0000
vn -0.0001 0.9809 0.1946
vn -0.0010 -0.9809 0.1943
vn 0.9809 -0.0001 0.1947
vn -0.9809 -0.0007 0.1943
vn 0.0000 1.0000 0.0001
usemtl None
s off
f 27/1/1 24/2/1 32/3/1 31/4/1
f 31/5/2 30/6/2 26/7/2 27/8/2
f 28/9/3 25/10/3 21/11/3 23/12/3
f 22/13/4 26/14/4 30/15/4 29/16/4
f 5/17/5 6/18/5 8/19/5 7/20/5
f 7/20/3 8/19/3 12/21/3 11/22/3
f 11/22/6 12/21/6 10/23/6 9/24/6
f 9/24/7 10/23/7 6/25/7 5/26/7
f 7/27/1 11/22/1 9/24/1 5/28/1
f 12/21/4 8/29/4 6/30/4 10/23/4
f 13/31/2 14/32/2 16/33/2 15/34/2
f 15/34/3 16/33/3 20/35/3 19/36/3
f 19/36/8 20/35/8 18/37/8 17/38/8
f 17/38/7 18/37/7 14/39/7 13/40/7
f 15/41/1 19/36/1 17/38/1 13/42/1
f 20/35/9 16/43/9 14/44/9 18/37/9
f 22/45/10 24/46/10 23/47/10 21/48/10
f 26/14/11 22/13/11 21/49/11 25/50/11
f 24/2/12 27/1/12 28/51/12 23/52/12
f 25/10/13 28/9/13 27/53/13 26/54/13
f 24/46/8 22/45/8 29/55/8 32/56/8
f 3/57/7 1/58/7 29/59/7 30/60/7
f 2/61/7 4/62/7 31/63/7 32/64/7
f 1/58/7 2/61/7 32/64/7 29/59/7
f 4/62/7 3/57/7 30/60/7 31/63/7
f 2/61/14 1/58/14 34/65/14 35/66/14
f 3/57/15 4/62/15 40/67/15 37/68/15
f 4/62/16 2/61/16 35/66/16 40/67/16
f 36/69/17 33/70/17 38/71/17 39/72/17
f 34/65/18 37/68/18 38/71/18 33/70/18
f 40/67/19 35/66/19 36/69/19 39/72/19
f 33/70/20 36/69/20 35/66/20 34/65/20
f 39/72/21 38/71/21 37/68/21 40/67/21
f 1/58/22 3/57/22 37/68/22 34/65/22
o Cube_Cube.002
v 1.294494 1.507242 5.637151
v 1.294494 1.917146 5.637151
v 1.294494 1.507242 3.326765
v 1.294494 1.917146 3.326765
v 7.435624 1.507242 4.430087
v 7.435624 1.917146 4.430087
v 7.435624 1.507242 2.430087
v 7.435624 1.917146 2.430087
v 2.594631 1.830365 2.853507
v 3.159908 1.792634 3.037602
v -4.853480 1.507242 4.430087
v -4.853480 1.917146 4.430087
v -4.853480 1.507242 2.430087
v -4.853480 1.917146 2.430087
vt 0.625000 0.250000
vt 0.375000 0.250000
vt 0.375000 0.250000
vt 0.625000 0.250000
vt 0.625000 0.500000
vt 0.375000 0.500000
vt 0.625000 0.750000
vt 0.375000 0.750000
vt 0.625000 1.000000
vt 0.375000 1.000000
vt 0.125000 0.500000
vt 0.125000 0.750000
vt 0.875000 0.500000
vt 0.875000 0.750000
vt 0.375000 0.000000
vt 0.625000 0.000000
vt 0.625000 1.000000
vt 0.375000 1.000000
vt 0.875000 0.500000
vt 0.875000 0.750000
vt 0.125000 0.750000
vt 0.125000 0.500000
vn 0.1443 0.0000 -0.9895
vn -0.1445 0.0000 -0.9895
vn 1.0000 0.0000 0.0000
vn 0.1929 0.0000 0.9812
vn 0.0000 -1.0000 0.0000
vn 0.0000 1.0000 0.0000
vn -1.0000 0.0000 0.0000
vn -0.1927 0.0000 0.9813
usemtl None
s off
f 44/73/23 43/74/23 53/75/23 54/76/23
f 43/74/24 44/73/24 48/77/24 47/78/24
f 47/78/25 48/77/25 46/79/25 45/80/25
f 45/80/26 46/79/26 42/81/26 41/82/26
f 43/83/27 47/78/27 45/80/27 41/84/27
f 48/77/28 44/85/28 42/86/28 46/79/28
f 51/87/29 52/88/29 54/76/29 53/75/29
f 41/82/30 42/81/30 52/89/30 51/90/30
f 42/86/28 44/85/28 54/91/28 52/92/28
f 43/83/27 41/84/27 51/93/27 53/94/27
l 44 49
l 44 50
o Cube.001_Cube.003
v 1.294494 -0.314937 5.637151
v 1.294494 0.094967 5.637151
v 1.294494 -0.314937 3.326765
v 1.294494 0.094967 3.326765
v 7.435624 -0.314937 4.430087
v 7.435624 0.094967 4.430087
v 7.435624 -0.314937 2.430087
v 7.435624 0.094967 2.430087
v 2.594631 0.008186 2.853507
v 3.159908 -0.029545 3.037602
v -4.853480 -0.314937 4.430087
v -4.853480 0.094967 4.430087
v -4.853480 -0.314937 2.430087
v -4.853480 0.094967 2.430087
vt 0.625000 0.250000
vt 0.375000 0.250000
vt 0.375000 0.250000
vt 0.625000 0.250000
vt 0.625000 0.500000
vt 0.375000 0.500000
vt 0.625000 0.750000
vt 0.375000 0.750000
vt 0.625000 1.000000
vt 0.375000 1.000000
vt 0.125000 0.500000
vt 0.125000 0.750000
vt 0.875000 0.500000
vt 0.875000 0.750000
vt 0.375000 0.000000
vt 0.625000 0.000000
vt 0.625000 1.000000
vt 0.375000 1.000000
vt 0.875000 0.500000
vt 0.875000 0.750000
vt 0.125000 0.750000
vt 0.125000 0.500000
vn 0.1443 0.0000 -0.9895
vn -0.1445 0.0000 -0.9895
vn 1.0000 0.0000 0.0000
vn 0.1929 0.0000 0.9812
vn 0.0000 -1.0000 0.0000
vn 0.0000 1.0000 0.0000
vn -1.0000 0.0000 0.0000
vn -0.1927 0.0000 0.9813
usemtl None
s off
f 58/95/31 57/96/31 67/97/31 68/98/31
f 57/96/32 58/95/32 62/99/32 61/100/32
f 61/100/33 62/99/33 60/101/33 59/102/33
f 59/102/34 60/101/34 56/103/34 55/104/34
f 57/105/35 61/100/35 59/102/35 55/106/35
f 62/99/36 58/107/36 56/108/36 60/101/36
f 65/109/37 66/110/37 68/98/37 67/97/37
f 55/104/38 56/103/38 66/111/38 65/112/38
f 56/108/36 58/107/36 68/113/36 66/114/36
f 57/105/35 55/106/35 65/115/35 67/116/35
l 58 63
l 58 64
o Cube.002_Cube.004
v -1.589029 0.514296 12.368771
v -1.646301 1.034834 12.352396
v -1.600307 0.505255 12.120779
v -1.657578 1.025793 12.104404
v 3.864593 1.105844 12.099187
v 3.807321 1.626382 12.082813
v 3.853314 1.096802 11.851195
v 3.796043 1.617341 11.834822
vt 0.375000 0.000000
vt 0.625000 0.000000
vt 0.625000 0.250000
vt 0.375000 0.250000
vt 0.625000 0.500000
vt 0.375000 0.500000
vt 0.625000 0.750000
vt 0.375000 0.750000
vt 0.625000 1.000000
vt 0.375000 1.000000
vt 0.125000 0.500000
vt 0.125000 0.750000
vt 0.875000 0.500000
vt 0.875000 0.750000
vn -0.9930 -0.1077 0.0491
vn -0.0454 -0.0364 -0.9983
vn 0.9930 0.1077 -0.0491
vn 0.0454 0.0364 0.9983
vn 0.1093 -0.9935 0.0313
vn -0.1093 0.9935 -0.0313
usemtl None
s off
f 69/117/39 70/118/39 72/119/39 71/120/39
f 71/120/40 72/119/40 76/121/40 75/122/40
f 75/122/41 76/121/41 74/123/41 73/124/41
f 73/124/42 74/123/42 70/125/42 69/126/42
f 71/127/43 75/122/43 73/124/43 69/128/43
f 76/121/44 72/129/44 70/130/44 74/123/44
